# xmcd
#
# Track frame offsets: 
#        150
#        25105
#        46635
#        68947
#        94095
#        118602
#        139927
#        161987
#        182537
#
# Disc length: 2698 seconds
#
# Revision: 3
# Processed by: cddbd v1.5.2PL0 Copyright (c) Steve Scherf et al.
# Submitted via: ExactAudioCopy v0.99pb3
#
DISCID=740a8809
DTITLE=Gerald Alston - Open Invitation
DYEAR=1990
DGENRE=R&B
TTITLE0=Slow Motion
TTITLE1=Getting Back Into Love
TTITLE2=Don't You Know How I Feel
TTITLE3=I'll Go Crazy
TTITLE4=Never Give Up
TTITLE5=Tell Me This Night Won't End
TTITLE6=Open Invitation
TTITLE7=Still In Love
TTITLE8=Any Day Now
EXTD=
EXTT0=
EXTT1=
EXTT2=
EXTT3=
EXTT4=
EXTT5=
EXTT6=
EXTT7=
EXTT8=
PLAYORDER=
